<svg xmlns="http://www.w3.org/2000/svg" viewBox="0 0 100 100" width="100" height="100">
  <g stroke="#2b1206" stroke-width="4.5" stroke-linejoin="round" stroke-linecap="round">
    <path d="M50 27c-4-9-13-13-22-11 1 9 8 15 17 15z" fill="#3f9a3a"/>
    <path d="M50 30c0-6 1-11 3-15" fill="none" stroke-width="5"/>
    <path d="M50 28c11-6 24-2 29 8 6 12 2 30-6 42-5 8-12 12-18 9-3-2-7-2-10 0-6 3-13-1-18-9-8-12-12-30-6-42 5-10 18-14 29-8z" fill="#e5342e"/>
    <path d="M29 40c-4 6-5 15-3 23" fill="none" stroke="#ffffff" stroke-opacity=".55" stroke-width="6"/>
  </g>
  <ellipse cx="38" cy="44" rx="9" ry="12" fill="#ffffff" fill-opacity=".22" transform="rotate(-22 38 44)"/>
</svg>
